<svg viewBox="0 0 1080 1080" width="1080" height="1080" xmlns="http://www.w3.org/2000/svg" font-family="Arial Black, Arial, sans-serif">
  <!-- Arka plan -->
  <rect width="1080" height="1080" fill="#1A1A1A"/>

  <!-- Üst kırmızı şerit -->
  <rect width="1080" height="180" fill="#D00000"/>

  <!-- Logo sepet (küçük, sol üst) -->
  <g transform="translate(48, 20) scale(0.85)" fill="white" opacity="0.9">
    <path d="M 122.8125 119.945312 C 98.414062 109.4375 56.257812 112.335938 34.03125 126.828125 C 25.9375 116.804688 28.714844 92.644531 38.015625 89.867188 C 31.617188 65.347656 44.417969 12.921875 13.375 11.230469 C 0.933594 24.519531 -6.796875 -4.953125 13.015625 2.171875 C 53.957031 6.113281 39.683594 57.082031 49.25 87.332031 C 83.554688 79.839844 141.050781 96.269531 129.335938 105.449219 C 95.273438 96.269531 53.238281 85.277344 38.015625 116.683594 C 54.929688 99.773438 117.5 102.792969 122.8125 119.945312 Z"/>
    <path d="M 120.277344 88.78125 C 147.453125 65.953125 208.753906 -0.582031 46.714844 31.886719 C 165.933594 25.367188 150.351562 35.511719 120.277344 88.78125 Z"/>
    <path d="M 114.773438 113.746094 C 116.957031 113.777344 118.988281 114.394531 120.621094 115.664062 C 125.367188 119.34375 124.921875 127.097656 119.632812 132.96875 C 114.339844 138.839844 106.195312 140.621094 101.449219 136.9375 C 96.703125 133.253906 97.148438 125.496094 102.4375 119.625 C 105.910156 115.773438 110.613281 113.683594 114.773438 113.746094 Z"/>
    <path d="M 50.089844 113.746094 C 52.269531 113.777344 54.304688 114.394531 55.9375 115.664062 C 60.679688 119.34375 60.238281 127.097656 54.945312 132.96875 C 49.65625 138.839844 41.511719 140.621094 36.765625 136.9375 C 32.019531 133.253906 32.464844 125.496094 37.753906 119.625 C 41.226562 115.773438 45.925781 113.683594 50.089844 113.746094 Z"/>
  </g>

  <!-- DealHunter4U başlık -->
  <text x="210" y="90" font-size="64" font-weight="900" fill="white" letter-spacing="-1">Deal</text>
  <text x="360" y="90" font-size="64" font-weight="900" fill="white" letter-spacing="-1">Hunter</text>
  <rect x="618" y="42" width="72" height="34" rx="8" fill="white"/>
  <text x="654" y="66" font-size="18" font-weight="900" fill="#D00000" text-anchor="middle">4U</text>

  <!-- Alt başlık -->
  <text x="540" y="148" font-size="26" fill="rgba(255,255,255,0.8)" text-anchor="middle" letter-spacing="6">DEZE WEEK'S BESTE DEALS</text>

  <!-- Ürün 1 -->
  <rect x="48" y="210" width="984" height="140" rx="20" fill="#242424"/>
  <rect x="48" y="210" width="8" height="140" rx="4" fill="#D00000"/>
  <text x="80" y="268" font-size="22" font-weight="900" fill="#D00000">#1</text>
  <text x="120" y="268" font-size="30" font-weight="900" fill="white">Hak Appelmoes 4-pack</text>
  <text x="120" y="310" font-size="22" fill="#9C9389">Albert Heijn</text>
  <text x="900" y="268" font-size="44" font-weight="900" fill="#4CAF50" text-anchor="middle">€4.58</text>
  <text x="900" y="310" font-size="22" fill="#9C9389" text-anchor="middle" text-decoration="line-through">€9.16</text>
  <rect x="970" y="222" width="56" height="32" rx="16" fill="#D00000"/>
  <text x="998" y="243" font-size="16" font-weight="900" fill="white" text-anchor="middle">-50%</text>

  <!-- Ürün 2 -->
  <rect x="48" y="370" width="984" height="140" rx="20" fill="#242424"/>
  <rect x="48" y="370" width="8" height="140" rx="4" fill="#D00000"/>
  <text x="80" y="428" font-size="22" font-weight="900" fill="#D00000">#2</text>
  <text x="120" y="428" font-size="30" font-weight="900" fill="white">Robijn Wasverzachter 4-pack</text>
  <text x="120" y="470" font-size="22" fill="#9C9389">Albert Heijn</text>
  <text x="900" y="428" font-size="44" font-weight="900" fill="#4CAF50" text-anchor="middle">€13.58</text>
  <text x="900" y="470" font-size="22" fill="#9C9389" text-anchor="middle" text-decoration="line-through">€27.16</text>
  <rect x="970" y="382" width="56" height="32" rx="16" fill="#D00000"/>
  <text x="998" y="403" font-size="16" font-weight="900" fill="white" text-anchor="middle">-50%</text>

  <!-- Ürün 3 -->
  <rect x="48" y="530" width="984" height="140" rx="20" fill="#242424"/>
  <rect x="48" y="530" width="8" height="140" rx="4" fill="#D00000"/>
  <text x="80" y="588" font-size="22" font-weight="900" fill="#D00000">#3</text>
  <text x="120" y="588" font-size="30" font-weight="900" fill="white">Robijn Wasmiddel 4-pack</text>
  <text x="120" y="630" font-size="22" fill="#9C9389">Albert Heijn</text>
  <text x="900" y="588" font-size="44" font-weight="900" fill="#4CAF50" text-anchor="middle">€35.98</text>
  <text x="900" y="630" font-size="22" fill="#9C9389" text-anchor="middle" text-decoration="line-through">€71.96</text>
  <rect x="970" y="542" width="56" height="32" rx="16" fill="#D00000"/>
  <text x="998" y="563" font-size="16" font-weight="900" fill="white" text-anchor="middle">-50%</text>

  <!-- Ürün 4 -->
  <rect x="48" y="690" width="984" height="140" rx="20" fill="#242424"/>
  <rect x="48" y="690" width="8" height="140" rx="4" fill="#D00000"/>
  <text x="80" y="748" font-size="22" font-weight="900" fill="#D00000">#4</text>
  <text x="120" y="748" font-size="30" font-weight="900" fill="white">Robijn Wasverzachter 8-pack</text>
  <text x="120" y="790" font-size="22" fill="#9C9389">Albert Heijn</text>
  <text x="900" y="748" font-size="44" font-weight="900" fill="#4CAF50" text-anchor="middle">€27.16</text>
  <text x="900" y="790" font-size="22" fill="#9C9389" text-anchor="middle" text-decoration="line-through">€54.32</text>
  <rect x="970" y="702" width="56" height="32" rx="16" fill="#D00000"/>
  <text x="998" y="723" font-size="16" font-weight="900" fill="white" text-anchor="middle">-50%</text>

  <!-- Alt footer -->
  <rect x="0" y="880" width="1080" height="200" fill="#D00000"/>
  <text x="540" y="950" font-size="36" font-weight="900" fill="white" text-anchor="middle">🛒 Alle aanbiedingen op één plek!</text>
  <text x="540" y="1010" font-size="32" fill="rgba(255,255,255,0.9)" text-anchor="middle">www.dealhunter4u.nl</text>
  <text x="540" y="1055" font-size="20" fill="rgba(255,255,255,0.6)" text-anchor="middle">#dealhunter4u #aanbiedingen #besparen #supermarkt #boodschappen</text>
</svg>
